HIERARCHY
ROOT Hips
{
  OFFSET 51.8187 84.2856 9.62466
  CHANNELS 6 Xposition Yposition Zposition Zrotation Xrotation Yrotation
  JOINT spine
  {
    OFFSET 0 5.95438 0.342407
    CHANNELS 3 Zrotation Xrotation Yrotation
    JOINT spine1
    {
      OFFSET 0 8.85602 0
      CHANNELS 3 Zrotation Xrotation Yrotation
      JOINT spine2
      {
        OFFSET 0 8.48567 0
        CHANNELS 3 Zrotation Xrotation Yrotation
        JOINT Neck
        {
          OFFSET 0 21.7863 1.0387
          CHANNELS 3 Zrotation Xrotation Yrotation
          JOINT Head
          {
            OFFSET 0 6.5822 0
            CHANNELS 3 Zrotation Xrotation Yrotation
            End Site
            {
              OFFSET 0 15.9326 -5.25436
            }
          }
        }
        JOINT RightShoulder
        {
          OFFSET -3.57307 9.16386 -0.497525
          CHANNELS 3 Zrotation Xrotation Yrotation
          JOINT RightArm
          {
            OFFSET 0 12.0192 0
            CHANNELS 3 Zrotation Xrotation Yrotation
            JOINT RightArmRoll
            {
              OFFSET 0 6.06755 0
              CHANNELS 3 Zrotation Xrotation Yrotation
              JOINT RightForeArm
              {
                OFFSET 0 17.6726 0
                CHANNELS 3 Zrotation Xrotation Yrotation
                JOINT RightForeArmRoll
                {
                  OFFSET 0 6.80873 0
                  CHANNELS 3 Zrotation Xrotation Yrotation
                  JOINT RightHand
                  {
                    OFFSET 0 13.6636 0
                    CHANNELS 3 Zrotation Xrotation Yrotation
                    End Site
                    {
                      OFFSET 0 0 0
                    }
                  }
                }
              }
            }
          }
        }
        JOINT LeftShoulder
        {
          OFFSET 3.57307 9.16386 -0.497525
          CHANNELS 3 Zrotation Xrotation Yrotation
          JOINT LeftArm
          {
            OFFSET 0 12.0192 0
            CHANNELS 3 Zrotation Xrotation Yrotation
            JOINT LeftArmRoll
            {
              OFFSET 0 6.06755 0
              CHANNELS 3 Zrotation Xrotation Yrotation
              JOINT LeftForeArm
              {
                OFFSET 0 17.6726 0
                CHANNELS 3 Zrotation Xrotation Yrotation
                JOINT LeftForeArmRoll
                {
                  OFFSET 0 6.80872 0
                  CHANNELS 3 Zrotation Xrotation Yrotation
                  JOINT LeftHand
                  {
                    OFFSET 0 13.6636 0
                    CHANNELS 3 Zrotation Xrotation Yrotation
                    End Site
                    {
                      OFFSET 0 0 0
                    }
                  }
                }
              }
            }
          }
        }
      }
    }
  }
  JOINT RightUpLeg
  {
    OFFSET -5.27774 -0.967797 -0.811858
    CHANNELS 3 Zrotation Xrotation Yrotation
    JOINT RightUpLegRoll
    {
      OFFSET 0 16.0214 0
      CHANNELS 3 Zrotation Xrotation Yrotation
      JOINT RightLeg
      {
        OFFSET 0 -19.8401 0
        CHANNELS 3 Zrotation Xrotation Yrotation
        JOINT RightLegRoll
        {
          OFFSET 0 19.905 0
          CHANNELS 3 Zrotation Xrotation Yrotation
          JOINT RightFoot
          {
            OFFSET 0 16.5675 0
            CHANNELS 3 Zrotation Xrotation Yrotation
            JOINT RightToeBase
            {
              OFFSET 0 13.8496 0
              CHANNELS 3 Zrotation Xrotation Yrotation
              End Site
              {
                OFFSET 0.00587034 6.70727 -0.773117
              }
            }
          }
        }
      }
    }
  }
  JOINT LeftUpLeg
  {
    OFFSET 5.27774 -0.967797 -0.811858
    CHANNELS 3 Zrotation Xrotation Yrotation
    JOINT LeftUpLegRoll
    {
      OFFSET 0 16.0215 0
      CHANNELS 3 Zrotation Xrotation Yrotation
      JOINT LeftLeg
      {
        OFFSET 0 19.84 0
        CHANNELS 3 Zrotation Xrotation Yrotation
        JOINT LeftLegRoll
        {
          OFFSET 0 20.089 0
          CHANNELS 3 Zrotation Xrotation Yrotation
          JOINT LeftFoot
          {
            OFFSET 0 16.3835 0
            CHANNELS 3 Zrotation Xrotation Yrotation
            JOINT LeftToeBase
            {
              OFFSET 0 13.8496 0
              CHANNELS 3 Zrotation Xrotation Yrotation
              End Site
              {
                OFFSET -0.0263083 6.70728 -0.773117
              }
            }
          }
        }
      }
    }
  }
}
MOTION
Frames: 6
Frame Time: 0.00208333
51.6743 84.3585 5.70345 -1.04678 -9.20957 -3.67663 0.132913 -0.502817 0.0630958 0.26608 2.99823 0.106682 0.265155 4.6433 0.101643 -3.05829 14.4866 0.205602 5.3369 1.9588 -0.516948 76.1918 0.959625 -1.51017 105.738 17.0452 -6.57868 -3.17757e-006 -3.45606e-007 -1.27832e-006 -3.64046 -0.0269577 -1.99237 -1.60474e-005 -2.21781e-006 -3.01161 8.03011 -4.95136 0.697626 -62.3926 -2.42078 1.76751 -119.483 14.5056 17.5611 3.34404e-006 1.61044e-006 -3.0919e-007 3.64256 -0.0279832 1.99245 5.41384e-006 7.24973e-007 3.0116 -8.03009 -4.95139 -0.697621 -179.544 -3.20307 3.08743 180 7.01526e-015 178.837 177.155 8.99505 179.909 -3.40002e-006 -2.58338e-006 0.129998 -19.045 68.5368 19.9848 8.13649 25.2327 -3.48773 -178.43 -3.52866 -0.978692 4.54188e-006 -4.6773e-006 -1.16455 -2.55613 -11.1201 0.0281051 3.65571e-006 3.61064e-006 -0.189767 20.4327 70.1337 -21.4995 -8.13649 25.2327 3.48774 
51.6756 84.3608 5.71114 -1.04818 -9.21407 -3.67281 0.133585 -0.501071 0.0630971 0.267424 3.00204 0.106592 0.2665 4.64711 0.101514 -3.07424 14.4736 0.210492 5.35133 1.96232 -0.516547 76.1758 0.960994 -1.50772 105.76 17.0303 -6.59366 -3.17757e-006 -3.45606e-007 -1.27832e-006 -3.64046 -0.0269577 -1.99237 -1.60474e-005 -2.21781e-006 -3.01161 8.03011 -4.95136 0.697626 -62.3974 -2.42065 1.76789 -119.469 14.5049 17.5464 3.34404e-006 1.61044e-006 -3.0919e-007 3.64256 -0.0279832 1.99245 5.41384e-006 7.24973e-007 3.0116 -8.03009 -4.95139 -0.697621 -179.541 -3.19869 3.08505 180 7.01526e-015 178.837 177.159 9.0051 179.909 -3.40002e-006 -2.58338e-006 0.129998 -19.0464 68.5384 19.9863 8.13649 25.2327 -3.48773 -178.427 -3.53642 -0.982452 4.54188e-006 -4.6773e-006 -1.16455 -2.55898 -11.1154 0.0278338 3.65571e-006 3.61064e-006 -0.189768 20.4305 70.1316 -21.4973 -8.13649 25.2327 3.48774 
51.672 84.3615 5.71069 -1.05007 -9.21797 -3.66907 0.134374 -0.499466 0.0630995 0.269003 3.00559 0.106489 0.26808 4.65066 0.101366 -3.09025 14.4607 0.215455 5.36576 1.96569 -0.51609 76.1591 0.96194 -1.50537 105.782 17.015 -6.60904 -3.17757e-006 -3.45606e-007 -1.27832e-006 -3.64046 -0.0269577 -1.99237 -1.60474e-005 -2.21781e-006 -3.01161 8.03011 -4.95136 0.697626 -62.4019 -2.42055 1.76825 -119.454 14.5037 17.5316 3.34404e-006 1.61044e-006 -3.0919e-007 3.64256 -0.0279832 1.99245 5.41384e-006 7.24973e-007 3.0116 -8.03009 -4.95139 -0.697621 -179.537 -3.19293 3.08218 180 7.01526e-015 178.837 177.163 9.01554 179.909 -3.40002e-006 -2.58338e-006 0.129998 -19.0475 68.5397 19.9875 8.13649 25.2327 -3.48773 -178.424 -3.54331 -0.986666 4.54188e-006 -4.6773e-006 -1.16455 -2.56202 -11.111 0.0275421 3.65571e-006 3.61064e-006 -0.189768 20.4284 70.1294 -21.4951 -8.13649 25.2327 3.48774 
51.6717 84.3599 5.71003 -1.0523 -9.22147 -3.66539 0.135245 -0.497959 0.0631027 0.270746 3.00897 0.106379 0.269824 4.65403 0.101206 -3.1063 14.4479 0.220468 5.38019 1.96894 -0.515593 76.142 0.962588 -1.5031 105.805 16.9994 -6.6247 -3.17757e-006 -3.45606e-007 -1.27832e-006 -3.64046 -0.0269577 -1.99237 -1.60474e-005 -2.21781e-006 -3.01161 8.03011 -4.95136 0.697626 -62.4063 -2.42047 1.76861 -119.44 14.5021 17.5167 3.34404e-006 1.61044e-006 -3.0919e-007 3.64256 -0.0279832 1.99245 5.41383e-006 7.24973e-007 3.0116 -8.03009 -4.95139 -0.697621 -179.533 -3.18619 3.07896 180 7.01526e-015 178.837 177.167 9.02626 179.909 -3.40002e-006 -2.58338e-006 0.129998 -19.0485 68.5407 19.9885 8.13649 25.2327 -3.48773 -178.42 -3.54961 -0.991199 4.54188e-006 -4.6773e-006 -1.16455 -2.5652 -11.1068 0.0272361 3.65571e-006 3.61064e-006 -0.189769 20.4262 70.1273 -21.4929 -8.13649 25.2327 3.48774 
51.6797 84.3601 5.70975 -1.05474 -9.22472 -3.66174 0.136163 -0.496508 0.0631064 0.272583 3.01223 0.106263 0.271662 4.65729 0.101038 -3.12238 14.4351 0.225511 5.39462 1.97213 -0.515073 76.1246 0.963067 -1.50087 105.828 16.9837 -6.64052 -3.17757e-006 -3.45606e-007 -1.27832e-006 -3.64046 -0.0269577 -1.99237 -1.60474e-005 -2.21781e-006 -3.01161 8.03011 -4.95136 0.697626 -62.4106 -2.4204 1.76897 -119.425 14.5003 17.5018 3.34404e-006 1.61044e-006 -3.0919e-007 3.64256 -0.0279832 1.99245 5.41383e-006 7.24973e-007 3.0116 -8.03009 -4.95139 -0.697621 -179.528 -3.17889 3.07554 180 7.01526e-015 178.837 177.171 9.03714 179.909 -3.40002e-006 -2.58338e-006 0.129998 -19.0493 68.5417 19.9893 8.13649 25.2327 -3.48773 -178.417 -3.55556 -0.995914 4.54188e-006 -4.6773e-006 -1.16455 -2.56846 -11.1029 0.0269219 3.65571e-006 3.61064e-006 -0.18977 20.424 70.1252 -21.4908 -8.13649 25.2327 3.48774 
51.6786 84.3583 5.70903 -1.05722 -9.22792 -3.65809 0.137093 -0.495072 0.0631101 0.274443 3.01547 0.106147 0.273523 4.66053 0.100868 -3.13845 14.4223 0.230561 5.40904 1.97531 -0.514548 76.1072 0.963504 -1.49864 105.851 16.9679 -6.65637 -3.17757e-006 -3.45606e-007 -1.27832e-006 -3.64046 -0.0269577 -1.99237 -1.60474e-005 -2.21781e-006 -3.01161 8.03011 -4.95136 0.697626 -62.4148 -2.42033 1.76932 -119.411 14.4985 17.4868 3.34404e-006 1.61044e-006 -3.0919e-007 3.64256 -0.0279832 1.99245 5.41384e-006 7.24973e-007 3.0116 -8.03009 -4.95139 -0.697621 -179.523 -3.17145 3.07207 180 7.01526e-015 178.837 177.175 9.04807 179.908 -3.40002e-006 -2.58338e-006 0.129998 -19.0501 68.5426 19.9902 8.13649 25.2327 -3.48773 -178.412 -3.56143 -1.00068 4.54188e-006 -4.6773e-006 -1.16455 -2.57173 -11.0989 0.0266057 3.65571e-006 3.61064e-006 -0.189771 20.4218 70.1231 -21.4886 -8.13649 25.2327 3.48774 
